<svg xmlns="http://www.w3.org/2000/svg" version="1.1" xmlns:xlink="http://www.w3.org/1999/xlink" width="512" height="512" x="0" y="0" viewBox="0 0 512 512" style="enable-background:new 0 0 512 512" xml:space="preserve" class=""><g><path d="M504 363.594h-21.355V108.067a34.039 34.039 0 0 0-34-34H63.354a34.039 34.039 0 0 0-34 34v255.527H8a8 8 0 0 0-8 8v32.339a34.039 34.039 0 0 0 34 34h444a34.039 34.039 0 0 0 34-34v-32.339a8 8 0 0 0-8-8zM45.355 108.067a18.02 18.02 0 0 1 18-18h385.291a18.02 18.02 0 0 1 18 18v255.527h-14V112.067a8 8 0 0 0-8-8H67.354a8 8 0 0 0-8 8v251.527h-14zM198.16 379.594h115.68v13.17H198.16zm-122.806-16V120.067h361.292v243.527zM496 403.933a18.021 18.021 0 0 1-18 18H34a18.021 18.021 0 0 1-18-18v-24.339h166.16v13.341a15.848 15.848 0 0 0 15.83 15.829h116.02a15.848 15.848 0 0 0 15.83-15.829v-13.341H496zM256 137.874A101.976 101.976 0 1 0 357.976 239.85 102.092 102.092 0 0 0 256 137.874zm85.59 93.976h-32.3c-1.388-31.177-10.828-57.679-24.716-73.077a86.167 86.167 0 0 1 57.016 73.077zM248 162.509v69.341h-29.266c.937-18.984 5.2-36.531 12.241-50.07 4.931-9.48 10.873-16.124 17.025-19.271zm0 85.341v69.341c-6.152-3.147-12.093-9.79-17.024-19.271-7.042-13.539-11.305-31.087-12.242-50.07zm16 69.341V247.85h29.267c-.937 18.983-5.2 36.531-12.242 50.07-4.931 9.48-10.873 16.124-17.025 19.271zm0-85.341v-69.341c6.152 3.147 12.094 9.789 17.025 19.271 7.042 13.539 11.305 31.086 12.242 50.07zm-36.568-73.077c-13.888 15.4-23.328 41.9-24.716 73.077H170.41a86.165 86.165 0 0 1 57.022-73.077zM170.41 247.85h32.306c1.388 31.176 10.828 57.678 24.715 73.076a86.166 86.166 0 0 1-57.021-73.076zm114.16 73.076c13.888-15.4 23.327-41.9 24.715-73.076h32.3a86.166 86.166 0 0 1-57.015 73.076z" fill="#e1f2fe" opacity="1" data-original="#000000" class=""></path></g></svg>