<svg xmlns="http://www.w3.org/2000/svg" version="1.1" xmlns:xlink="http://www.w3.org/1999/xlink" width="512" height="512" x="0" y="0" viewBox="0 0 64 64" style="enable-background:new 0 0 512 512" xml:space="preserve" class=""><g><g data-name="Layer 2"><path d="M14.028 9h15a1 1 0 0 0 0-2h-15a1 1 0 0 0 0 2zM37.028 12h-23a1 1 0 0 0 0 2h23a1 1 0 0 0 0-2zM22.028 17h-8a1 1 0 0 0 0 2h8a1 1 0 0 0 0-2zM6.028 34v7.782a.996.996 0 0 0-1.003.488l-2.864 4.96a1.007 1.007 0 0 0 .367 1.366l2.407 1.39a7.09 7.09 0 0 0 0 1.028l-2.407 1.39a1 1 0 0 0-.367 1.366l2.864 4.96a1 1 0 0 0 1.366.366l2.41-1.39a8.723 8.723 0 0 0 .888.514V61a1 1 0 0 0 1 1h5.727a1 1 0 0 0 1-1v-2.78a8.723 8.723 0 0 0 .888-.515l2.41 1.391a1.002 1.002 0 0 0 1.366-.366L24.811 54h26.217a3.003 3.003 0 0 0 3-3V34a3.003 3.003 0 0 0-3-3h-42a3.003 3.003 0 0 0-3 3zm14.82 22.864-2.103-1.214c-1.009-.516-1.768.798-2.704 1a1 1 0 0 0-.625.926V60H11.69v-2.424a1 1 0 0 0-.624-.927c-.936-.201-1.696-1.515-2.705-1l-2.102 1.215-1.864-3.228 2.104-1.215c.734-.37.409-1.323.418-1.921-.01-.597.316-1.552-.418-1.921l-2.104-1.215 1.863-3.228L8.36 45.35c1.009.515 1.77-.798 2.705-1a1 1 0 0 0 .624-.926V41h3.727v2.424a1 1 0 0 0 .625.927c.935.202 1.695 1.514 2.704 1l2.103-1.215 1.864 3.228-2.104 1.215c-.735.37-.41 1.323-.419 1.921.01.597-.316 1.552.419 1.921l2.104 1.215zM51.028 33a1.001 1.001 0 0 1 1 1v17a1.001 1.001 0 0 1-1 1h-27.15l-1.707-.986a7.09 7.09 0 0 0 0-1.028l2.407-1.39a1 1 0 0 0 .366-1.366l-2.864-4.96a1 1 0 0 0-1.366-.366l-2.41 1.39a8.723 8.723 0 0 0-.888-.514V40a1 1 0 0 0-1-1H10.69a1 1 0 0 0-1 1v2.78a8.723 8.723 0 0 0-.888.515l-.773-.447V34a1.001 1.001 0 0 1 1-1z" fill="#e1f2fe" opacity="1" data-original="#000000" class=""></path><path d="M14.028 38h15a1 1 0 0 0 0-2h-15a1 1 0 0 0 0 2zM24.028 42a1 1 0 0 0 1 1h12a1 1 0 0 0 0-2h-12a1 1 0 0 0-1 1zM34.028 46h-6a1 1 0 0 0 0 2h6a1 1 0 0 0 0-2zM13.552 46a4.5 4.5 0 0 0 0 9 4.5 4.5 0 0 0 0-9zm0 7a2.5 2.5 0 0 1 0-5 2.5 2.5 0 0 1 0 5zM54.028 5.059a3.005 3.005 0 0 0-3-3.059h-42a3.003 3.003 0 0 0-3 3v17a3.003 3.003 0 0 0 3 3h20v2.586l-.293-.293a1 1 0 0 0-1.414 1.414l2 2a1.008 1.008 0 0 0 1.414 0l2-2a1 1 0 0 0-1.415-1.414l-.292.293V25h20a2.994 2.994 0 0 0 2.828-2.042c10.729-1.25 10.857-16.453.172-17.899zM9.028 23a1.001 1.001 0 0 1-1-1V5a1.001 1.001 0 0 1 1-1h42a1.005 1.005 0 0 1 1 1.059C41.72 6.421 41.32 20.915 51.505 22.861a.971.971 0 0 1-.477.139zm44-2a7.008 7.008 0 0 1-7-7c.328-9.265 13.672-9.262 14 0a7.008 7.008 0 0 1-7 7z" fill="#e1f2fe" opacity="1" data-original="#000000" class=""></path><path d="m56.32 11.293-3.292 3.293-1.293-1.293a1 1 0 0 0-1.414 1.414l2 2a1 1 0 0 0 1.414 0l4-4a1 1 0 0 0-1.414-1.414z" fill="#e1f2fe" opacity="1" data-original="#000000" class=""></path></g></g></svg>