<svg xmlns="http://www.w3.org/2000/svg" version="1.1" xmlns:xlink="http://www.w3.org/1999/xlink" width="512" height="512" x="0" y="0" viewBox="0 0 445 445.6" style="enable-background:new 0 0 512 512" xml:space="preserve" class=""><g><linearGradient id="a"><stop offset="0" stop-color="#00efd1"></stop><stop offset="1" stop-color="#00acea"></stop></linearGradient><linearGradient xlink:href="#a" id="b" x1="256.03" x2="256.03" y1="498" y2="13.191" gradientTransform="matrix(1 0 0 -1 -58.52 480.8)" gradientUnits="userSpaceOnUse"></linearGradient><linearGradient xlink:href="#a" id="c" x1="256" x2="256" y1="498" y2="13.191" gradientTransform="matrix(1 0 0 -1 -58.52 480.8)" gradientUnits="userSpaceOnUse"></linearGradient><path fill="url(#b)" d="M385.082 102.8c-16.602-26-52.3-36.8-100.402-30.6-1.7.198-3.5.5-5.2.698-.699-1.597-1.398-3.199-2.199-4.796C256.582 24.199 228.281 0 197.481 0s-59.2 24.2-79.801 68.102c-.7 1.597-1.5 3.199-2.2 4.796-1.8-.296-3.5-.5-5.199-.699-48.199-6.3-83.8 4.602-100.402 30.602-16.598 26-11.5 62.898 14.3 103.898a232.032 232.032 0 0 0 11.102 16.102c-4 5.398-7.699 10.699-11.101 16.097-25.801 41-30.899 78-14.301 103.903 13.5 21.199 39.703 32.3 75 32.3 8.46-.046 16.91-.613 25.3-1.703 1.7-.199 3.5-.5 5.2-.699.703 1.602 1.402 3.2 2.203 4.801 20.7 43.898 49 68.102 79.797 68.102 30.8 0 59.203-24.204 79.8-68.102.7-1.602 1.5-3.2 2.2-4.8 1.8.3 3.5.5 5.203.698a188.276 188.276 0 0 0 25.297 1.704c35.3 0 61.5-11.102 75-32.301 16.601-26 11.5-62.903-14.297-103.903a232.906 232.906 0 0 0-11.102-16.097c4-5.403 7.7-10.7 11.102-16.102 26.098-41.097 31.2-78 14.5-103.898zm-249.3-26.198C152.68 40.602 175.18 20 197.48 20s44.801 20.602 61.7 56.602a.362.362 0 0 0 .101.199 354.345 354.345 0 0 0-61.902 21.097 346.07 346.07 0 0 0-61.899-21.097c.2 0 .2-.102.301-.2zm151.8 146.199c.004 16-.863 31.992-2.602 47.898a426.539 426.539 0 0 1-39 28 425.524 425.524 0 0 1-48.601 26.903 451.17 451.17 0 0 1-48.598-26.903 440.268 440.268 0 0 1-39-28 442.276 442.276 0 0 1 0-95.8A442.405 442.405 0 0 1 197.38 120a450.522 450.522 0 0 1 48.601 26.898 440.268 440.268 0 0 1 39 28 440.02 440.02 0 0 1 2.602 47.903zm19.098-29.102a323.767 323.767 0 0 1 27.601 29.102 324.247 324.247 0 0 1-27.601 29.097c.601-9.597.902-19.296.902-29.097s-.3-19.5-.902-29.102zm-25.801 105.403a319.536 319.536 0 0 1-13.7 50.898 315.042 315.042 0 0 1-45.597-14 509.73 509.73 0 0 0 35.297-20.398c8.203-5.301 16.203-10.801 24-16.5zM173.379 336a295.562 295.562 0 0 1-45.598 14 319.536 319.536 0 0 1-13.699-50.898c7.7 5.699 15.7 11.199 24 16.398 11.7 7.5 23.5 14.3 35.297 20.5zM88.28 251.898a324.801 324.801 0 0 1-27.601-29.097 324.32 324.32 0 0 1 27.601-29.102c-.601 9.602-.902 19.301-.902 29.102s.3 19.5.902 29.097zM114.082 146.5a319.313 319.313 0 0 1 13.7-50.898 313.923 313.923 0 0 1 45.597 14A509.73 509.73 0 0 0 138.082 130a506.384 506.384 0 0 0-24 16.5zm142.7-16.5c-11.602-7.398-23.403-14.3-35.302-20.398a295.477 295.477 0 0 1 45.602-14 320.142 320.142 0 0 1 13.7 50.898c-7.7-5.7-15.7-11.2-24-16.5zm-215.7 66c-21.203-33.602-26.402-63.7-14.402-82.5 9.601-15 30.402-23.102 58.5-23.102 7.523.032 15.039.536 22.5 1.5h.199a359.898 359.898 0 0 0-16.797 72.5A372.95 372.95 0 0 0 48.18 206.5c-2.5-3.398-4.899-6.898-7.098-10.5zm66.5 157.602a180.576 180.576 0 0 1-22.5 1.5c-28.102 0-48.902-8-58.5-23.102-12-18.8-6.8-48.898 14.398-82.5 2.2-3.5 4.602-7.102 7.102-10.602A372.282 372.282 0 0 0 90.98 281a360.049 360.049 0 0 0 16.801 72.5c0 .102-.101.102-.199.102zM259.18 369c-16.899 36-39.399 56.602-61.7 56.602S152.68 405 135.781 369a.362.362 0 0 0-.101-.2 354.036 354.036 0 0 0 61.902-21.1 345.774 345.774 0 0 0 61.898 21.1c-.199 0-.199.098-.3.2zm94.699-119.398c21.203 33.597 26.402 63.699 14.402 82.5-12 18.796-41.5 26.699-80.902 21.5h-.2a359.907 359.907 0 0 0 16.801-72.5A372.601 372.601 0 0 0 346.88 239c2.402 3.5 4.8 7 7 10.602zm-50-85.102A359.776 359.776 0 0 0 287.082 92h.2c39.398-5.102 68.898 2.7 80.898 21.5s6.8 48.898-14.399 82.5c-2.199 3.5-4.601 7.102-7.101 10.602a363.394 363.394 0 0 0-42.801-42.102zm0 0" opacity="1" data-original="url(#b)" class=""></path><path fill="url(#c)" d="M197.48 183.2c-21.87 0-39.601 17.73-39.601 39.6 0 21.872 17.73 39.598 39.601 39.598 21.872 0 39.602-17.726 39.602-39.597-.016-21.867-17.738-39.586-39.602-39.602zm0 59.198c-10.824 0-19.601-8.773-19.601-19.597s8.777-19.602 19.601-19.602 19.602 8.778 19.602 19.602c-.02 10.816-8.785 19.582-19.602 19.597zm0 0" opacity="1" data-original="url(#c)" class=""></path></g></svg>